<svg width="30" height="30" viewBox="0 0 30 30" fill="none" xmlns="http://www.w3.org/2000/svg">
<g clip-path="url(#clip0)">
<path d="M27.4109 25.3038L25.2646 21.7263C24.2734 20.075 23.7496 18.1838 23.7496 16.2588V13.125C23.7496 9.16875 21.1096 5.82252 17.4996 4.74375V2.50002C17.4996 1.12125 16.3784 0 14.9996 0C13.6208 0 12.4996 1.12125 12.4996 2.50002V4.74375C8.8896 5.82252 6.2496 9.16875 6.2496 13.125V16.2588C6.2496 18.1838 5.72583 20.0738 4.73583 21.725L2.5896 25.3025C2.47335 25.4963 2.47083 25.7363 2.5821 25.9325C2.69337 26.1288 2.89962 26.2501 3.12462 26.2501H26.8746C27.0996 26.2501 27.3071 26.1288 27.4184 25.9338C27.5296 25.7388 27.5259 25.4963 27.4109 25.3038Z" fill="#444444"/>
<path d="M11.0634 27.5C11.7684 28.9725 13.2609 30 14.9996 30C16.7383 30 18.2308 28.9725 18.9358 27.5H11.0634Z" fill="#444444"/>
</g>
<defs>
<clipPath id="clip0">
<rect width="30" height="30" fill="white"/>
</clipPath>
</defs>
</svg>
