<svg width="30" height="30" viewBox="0 0 30 30" fill="none" xmlns="http://www.w3.org/2000/svg">
<path d="M28.8788 7.90914L28.5837 6.23535C28.3453 4.88673 26.902 4.0138 25.3589 4.2857L5.28357 7.82583H28.0241C28.3175 7.82583 28.6031 7.85539 28.8788 7.90914Z" fill="#444444"/>
<path d="M28.0241 9.91675H1.9762C0.886533 9.91675 0 10.6329 0 11.5128V24.1677C0 25.0476 0.886533 25.7637 1.9762 25.7637H28.0241C29.1135 25.7637 30 25.0476 30 24.1677V11.5128C29.9998 10.6326 29.1135 9.91675 28.0241 9.91675ZM9.29105 24.1384H7.20023V22.339H9.29105V24.1384ZM9.29105 20.5393H7.20023V18.7399H9.29105V20.5393ZM9.29105 16.9404H7.20023V15.1408H9.29105V16.9404ZM9.29105 13.3413H7.20023V11.5417H9.29105V13.3413ZM24.6533 15.5077L23.0443 17.0128L24.4939 21.8549L23.682 22.6668C23.5929 22.7557 23.4485 22.7557 23.3594 22.6668L21.1985 18.7396L19.2111 20.6998L19.5276 22.2446L19.0219 22.7506C18.9547 22.8178 18.8456 22.8178 18.7791 22.7509L15.9163 19.8882C15.8491 19.821 15.8491 19.7122 15.9163 19.6454L16.422 19.139L17.9385 19.4484L19.9 17.4534L16.0003 15.3068C15.9111 15.2182 15.9111 15.0739 15.9996 14.9848L16.8123 14.1728L21.6224 15.6127L23.1382 13.9923C23.5812 13.5494 24.2794 13.5299 24.6977 13.9484C25.1154 14.3665 25.0955 15.0649 24.6533 15.5077Z" fill="#444444"/>
</svg>
