<svg width="18" height="18" viewBox="0 0 18 18" fill="none" xmlns="http://www.w3.org/2000/svg">
<path d="M0.709427 6.72387C0.863385 6.87664 1.0717 6.96235 1.28836 6.96235L12.1976 6.94846V8.4686C12.1987 8.80032 12.4182 9.09792 12.7249 9.2241C13.0308 9.3487 13.3828 9.27767 13.6161 9.04197L17.2234 5.39936C17.6448 4.97439 17.644 4.28792 17.2198 3.86454L13.5943 0.240174C13.3602 0.00566576 13.0074 -0.0645677 12.7015 0.0632016C12.396 0.189781 12.1972 0.489364 12.1976 0.820294V2.34123L1.27725 2.35591C0.825292 2.3571 0.460633 2.72374 0.461427 3.17609L0.468569 6.14534C0.468966 6.36239 0.555865 6.57111 0.709427 6.72387Z" fill="#BBBBBB"/>
<path d="M16.7242 11.0711L5.80352 11.0572L5.80312 9.53592C5.80391 9.20459 5.60472 8.9062 5.29918 8.77922C4.99325 8.65185 4.6405 8.72129 4.40639 8.9558L0.78123 12.5806C0.357845 13.0028 0.356258 13.69 0.777658 14.1146L4.38456 17.7576C4.61788 17.9941 4.96984 18.0639 5.27617 17.9393C5.5825 17.8139 5.80233 17.5163 5.80352 17.1838V15.6641L16.7127 15.678C16.9298 15.678 17.1381 15.5923 17.2916 15.4391C17.4452 15.2859 17.5317 15.078 17.5325 14.8614L17.5392 11.8921C17.5404 11.4398 17.1758 11.0719 16.7242 11.0711Z" fill="#BBBBBB"/>
</svg>
