<svg width="18" height="17" viewBox="0 0 18 17" fill="none" xmlns="http://www.w3.org/2000/svg">
<path d="M8.99998 16.7515C8.74373 16.7515 8.49667 16.6544 8.30414 16.478C7.57698 15.8128 6.87592 15.1878 6.25739 14.6365L6.25423 14.6336C4.4408 13.0171 2.87484 11.6211 1.78528 10.2459C0.567306 8.70857 0 7.25094 0 5.65857C0 4.11144 0.507156 2.68412 1.42795 1.63935C2.35972 0.582219 3.63825 0 5.02843 0C6.06746 0 7.01902 0.343614 7.85658 1.02122C8.27928 1.36325 8.66243 1.78185 8.99998 2.27012C9.33768 1.78185 9.72069 1.36325 10.1435 1.02122C10.9811 0.343614 11.9326 0 12.9717 0C14.3617 0 15.6404 0.582219 16.5722 1.63935C17.493 2.68412 18 4.11144 18 5.65857C18 7.25094 17.4328 8.70857 16.2148 10.2458C15.1253 11.6211 13.5594 13.017 11.7463 14.6333C11.1267 15.1855 10.4245 15.8116 9.69569 16.4782C9.50329 16.6544 9.2561 16.7515 8.99998 16.7515ZM5.02843 1.10295C3.93626 1.10295 2.93293 1.5589 2.20303 2.38691C1.46228 3.22741 1.05427 4.38927 1.05427 5.65857C1.05427 6.99783 1.53012 8.19559 2.59703 9.54218C3.62823 10.8438 5.16206 12.2111 6.93799 13.7943L6.94129 13.7971C7.56215 14.3506 8.26596 14.9781 8.99847 15.6481C9.73538 14.9768 10.4403 14.3483 11.0624 13.794C12.8382 12.2108 14.3719 10.8438 15.4031 9.54218C16.4699 8.19559 16.9457 6.99783 16.9457 5.65857C16.9457 4.38927 16.5377 3.22741 15.7969 2.38691C15.0672 1.5589 14.0637 1.10295 12.9717 1.10295C12.1716 1.10295 11.437 1.369 10.7884 1.89361C10.2104 2.36134 9.80775 2.95261 9.57168 3.36632C9.45029 3.57907 9.2366 3.70606 8.99998 3.70606C8.76337 3.70606 8.54968 3.57907 8.42828 3.36632C8.19235 2.95261 7.78971 2.36134 7.21155 1.89361C6.56295 1.369 5.82837 1.10295 5.02843 1.10295Z" fill="white"/>
</svg>
