<svg width="18" height="18" viewBox="0 0 18 18" fill="none" xmlns="http://www.w3.org/2000/svg">
<g clip-path="url(#clip0)">
<path d="M14.9413 0H3.04968C2.80409 0 2.60474 0.199183 2.60474 0.444947V17.1094C2.60439 17.4433 2.79088 17.7492 3.08775 17.9018C3.38479 18.0543 3.74213 18.0277 4.0131 17.8328L8.99547 14.2613L13.978 17.8327C14.2491 18.0271 14.6061 18.0536 14.903 17.9011C15.1997 17.7487 15.3864 17.443 15.3864 17.1094V0.444947C15.3864 0.199183 15.187 0 14.9413 0ZM14.4963 17.1093L9.25496 13.3521C9.09993 13.241 8.89136 13.241 8.73649 13.3521L3.49498 17.1094V0.889894H14.4963V17.1093Z" fill="black"/>
</g>
<defs>
<clipPath id="clip0">
<rect width="18" height="18" fill="white"/>
</clipPath>
</defs>
</svg>
